<svg xmlns="http://www.w3.org/2000/svg" viewBox="0 0 43 43"><defs><style>.cls-1{fill:#778ac5;}</style></defs><title>Asset 10</title><g id="Layer_2" data-name="Layer 2"><g id="header_art" data-name="header art"><path class="cls-1" d="M21.5,0A21.5,21.5,0,1,0,43,21.5,21.5,21.5,0,0,0,21.5,0Zm4.75,17.86L26,21.08H22.7V32.25H18.54V21.08H16.31V17.86h2.22V15.7a5.76,5.76,0,0,1,.72-3.33,4,4,0,0,1,3.45-1.62,13.94,13.94,0,0,1,4,.4l-.56,3.29a7.53,7.53,0,0,0-1.79-.27c-.86,0-1.64.31-1.64,1.18v2.51Z"/></g></g></svg>