<svg xmlns="http://www.w3.org/2000/svg" viewBox="0 0 43 43"><defs><style>.cls-1{fill:#778ac5;}</style></defs><title>Asset 8</title><g id="Layer_2" data-name="Layer 2"><g id="header_art" data-name="header art"><path class="cls-1" d="M29.88,15.16a3.56,3.56,0,0,0-2-2,5.91,5.91,0,0,0-2-.37c-1.13-.05-1.47-.06-4.34-.06s-3.21,0-4.35.06a5.9,5.9,0,0,0-2,.37,3.54,3.54,0,0,0-2,2,6,6,0,0,0-.37,2c-.05,1.13-.06,1.47-.06,4.34s0,3.21.06,4.34a5.93,5.93,0,0,0,.37,2,3.55,3.55,0,0,0,2,2,5.88,5.88,0,0,0,2,.37c1.13.05,1.47.06,4.35.06s3.21,0,4.34-.06a5.89,5.89,0,0,0,2-.37,3.56,3.56,0,0,0,2-2,6,6,0,0,0,.37-2c.05-1.13.06-1.47.06-4.34s0-3.21-.06-4.34A6,6,0,0,0,29.88,15.16ZM21.5,27A5.52,5.52,0,1,1,27,21.5,5.52,5.52,0,0,1,21.5,27Zm5.74-10a1.29,1.29,0,1,1,1.29-1.29A1.29,1.29,0,0,1,27.24,17.05Z"/><circle class="cls-1" cx="21.5" cy="21.5" r="3.58"/><path class="cls-1" d="M21.5,0A21.5,21.5,0,1,0,43,21.5,21.5,21.5,0,0,0,21.5,0ZM32.19,25.93a7.93,7.93,0,0,1-.5,2.61,5.49,5.49,0,0,1-3.14,3.14,7.83,7.83,0,0,1-2.61.5c-1.14.05-1.51.06-4.43.06s-3.29,0-4.43-.06a7.83,7.83,0,0,1-2.61-.5,5.26,5.26,0,0,1-1.9-1.24,5.32,5.32,0,0,1-1.24-1.91,7.91,7.91,0,0,1-.5-2.61c-.05-1.15-.06-1.51-.06-4.43s0-3.29.06-4.43a7.9,7.9,0,0,1,.5-2.61,5.5,5.5,0,0,1,3.14-3.14,7.86,7.86,0,0,1,2.61-.5c1.15-.05,1.51-.07,4.43-.07s3.29,0,4.43.07a7.86,7.86,0,0,1,2.61.5,5.5,5.5,0,0,1,3.14,3.14,7.92,7.92,0,0,1,.5,2.61c.05,1.15.06,1.51.06,4.43S32.24,24.79,32.19,25.93Z"/></g></g></svg>