<svg xmlns="http://www.w3.org/2000/svg" viewBox="0 0 32 32"><defs><style>.cls-1{fill:#121332;}.cls-2{fill:#fff;}</style></defs><title>jinoandc</title><g id="Layer_2" data-name="Layer 2"><g id="header_art" data-name="header art"><rect class="cls-1" width="32" height="32"/><path class="cls-2" d="M5.91,9.66h.64a.51.51,0,0,0,.38-.11.43.43,0,0,0,.1-.3V5.21H8.95V9.58a1.49,1.49,0,0,1-.37,1.15,1.76,1.76,0,0,1-1.19.33H5.91V9.66Z"/><path class="cls-2" d="M10.42,5.21h2v5.86h-2Z"/><path class="cls-2" d="M13.9,5.21h1.54l1.62,2.26V5.21h1.84v5.86H17.35L15.74,8.82v2.25H13.9Z"/><path class="cls-2" d="M7.43,13h1.4l2.22,5.86H9.21L9,18.35H7.24l-.19.53H5.21Zm1.1,4-.39-1-.4,1Z"/><path class="cls-2" d="M12.07,13h1.54l1.62,2.26V13h1.84v5.86H15.51L13.9,16.63v2.25H12.07Z"/><path class="cls-2" d="M18.55,18.88V13h1.63a5.37,5.37,0,0,1,1.47.18,2.93,2.93,0,0,1,1.09.55,2.39,2.39,0,0,1,.68.92,3.58,3.58,0,0,1,0,2.54,2.38,2.38,0,0,1-.68.92,3,3,0,0,1-1.09.56,5.25,5.25,0,0,1-1.47.19Zm1.87-1.67a1.5,1.5,0,0,0,1-.31,1.19,1.19,0,0,0,.36-1,1.18,1.18,0,0,0-.36-.95,1.53,1.53,0,0,0-1-.31Z"/><path class="cls-2" d="M5.56,23.76a3.12,3.12,0,0,1,.25-1.27A2.89,2.89,0,0,1,7.46,20.9a3.31,3.31,0,0,1,1.2-.21,3.71,3.71,0,0,1,.89.1,4.17,4.17,0,0,1,.67.22,3.15,3.15,0,0,1,.56.31l-.92,1.63-.31-.2-.36-.14a1.53,1.53,0,0,0-.47-.07,1.3,1.3,0,0,0-.5.1,1.26,1.26,0,0,0-.4.26,1.23,1.23,0,0,0-.27.39,1.2,1.2,0,0,0-.1.48,1.14,1.14,0,0,0,.1.48,1.21,1.21,0,0,0,.28.39,1.32,1.32,0,0,0,.41.26,1.36,1.36,0,0,0,.52.1,1.65,1.65,0,0,0,.5-.07,1.87,1.87,0,0,0,.37-.16,1.33,1.33,0,0,0,.31-.23l.92,1.63a2.65,2.65,0,0,1-.56.34,4.9,4.9,0,0,1-.68.23,3.79,3.79,0,0,1-2.17-.12,3,3,0,0,1-1-.63,2.85,2.85,0,0,1-.66-1A3.21,3.21,0,0,1,5.56,23.76Z"/><path class="cls-2" d="M11.3,23.76a3,3,0,0,1,.24-1.2,3.06,3.06,0,0,1,1.64-1.64,3.08,3.08,0,0,1,2.39,0,3.06,3.06,0,0,1,1.64,1.64,3.07,3.07,0,0,1,0,2.39,3.07,3.07,0,0,1-1.64,1.64,3.08,3.08,0,0,1-2.39,0A3.07,3.07,0,0,1,11.54,25,3,3,0,0,1,11.3,23.76Zm1.85,0a1.19,1.19,0,0,0,.1.48,1.23,1.23,0,0,0,.26.39,1.25,1.25,0,0,0,.39.26,1.19,1.19,0,0,0,.48.1,1.21,1.21,0,0,0,.48-.1,1.25,1.25,0,0,0,.39-.26,1.23,1.23,0,0,0,.26-.39,1.24,1.24,0,0,0,0-1,1.24,1.24,0,0,0-.65-.65,1.21,1.21,0,0,0-.48-.1,1.19,1.19,0,0,0-.48.1,1.24,1.24,0,0,0-.65.65A1.19,1.19,0,0,0,13.15,23.76Z"/></g></g></svg>