<svg xmlns="http://www.w3.org/2000/svg" viewBox="0 0 43 43"><defs><style>.cls-1{fill:#778ac5;}</style></defs><title>Asset 9</title><g id="Layer_2" data-name="Layer 2"><g id="header_art" data-name="header art"><path class="cls-1" d="M21.5,0A21.5,21.5,0,1,0,43,21.5,21.5,21.5,0,0,0,21.5,0Zm8.58,18.16c0,.19,0,.38,0,.57A12.57,12.57,0,0,1,10.75,29.31a8.94,8.94,0,0,0,6.54-1.83,4.42,4.42,0,0,1-4.13-3.07,4.36,4.36,0,0,0,.83.08,4.29,4.29,0,0,0,1.17-.16A4.42,4.42,0,0,1,11.61,20V20a4.43,4.43,0,0,0,2,.55,4.42,4.42,0,0,1-1.37-5.9,12.55,12.55,0,0,0,9.11,4.62,4.34,4.34,0,0,1-.11-1,4.42,4.42,0,0,1,7.64-3,8.81,8.81,0,0,0,2.81-1.07,4.43,4.43,0,0,1-1.94,2.44,8.82,8.82,0,0,0,2.54-.69A8.94,8.94,0,0,1,30.08,18.16Z"/></g></g></svg>